<svg width="128" height="128" viewBox="0 0 120 120" fill="none" xmlns="http://www.w3.org/2000/svg">
    <!-- Can Body -->
    <path d="M20 30H100V100C100 105.523 95.5228 110 90 110H30C24.4772 110 20 105.523 20 100V30Z" fill="#3B82F6" stroke="#1E40AF" stroke-width="4" />
    <path d="M20 35C20 35 40 40 60 40C80 40 100 35 100 35" stroke="#1E40AF" stroke-width="2" stroke-opacity="0.3" />

    <!-- Contents (Revealed) -->
    <g transform="translate(0, -10)">
        <rect x="35" y="50" width="20" height="30" rx="2" fill="#FFFFFF" fill-opacity="0.9" />
        <rect x="65" y="45" width="20" height="30" rx="2" fill="#93C5FD" fill-opacity="0.9" />
    </g>

    <!-- Can Lid (Open Position) -->
    <g transform="translate(0, -15)">
        <path d="M100 30H20V20C20 14.4772 24.4772 10 30 10H90C95.5228 10 100 14.4772 100 20V30Z" fill="#60A5FA" stroke="#1E40AF" stroke-width="4" />
        <!-- Pull Tab -->
        <circle cx="60" cy="20" r="6" fill="#1E40AF" />
    </g>
</svg>
